<?xml version="1.0" standalone="no"?>
<!DOCTYPE svg PUBLIC "-//W3C//DTD SVG 20010904//EN"
 "http://www.w3.org/TR/2001/REC-SVG-20010904/DTD/svg10.dtd">
<svg version="1.0" xmlns="http://www.w3.org/2000/svg"
 width="128.000000pt" height="128.000000pt" viewBox="0 0 128.000000 128.000000"
 preserveAspectRatio="xMidYMid meet">
<metadata>
Created by potrace 1.14, written by Peter Selinger 2001-2017
</metadata>
<g transform="translate(0.000000,128.000000) scale(0.100000,-0.100000)"
fill="#000000" stroke="none">
<path d="M290 1212 c-17 -14 -23 -29 -23 -55 0 -30 -4 -37 -20 -37 -10 0 -34
-15 -53 -34 l-34 -34 0 -427 c0 -471 1 -481 61 -506 22 -9 134 -12 423 -12
363 0 395 1 423 18 17 10 36 29 42 42 15 33 15 863 0 896 -11 25 -57 57 -81
57 -9 0 -15 13 -16 38 -4 48 -30 75 -65 67 -28 -7 -35 -21 -39 -73 l-2 -32
-266 2 -265 3 -6 42 c-6 48 -6 48 -35 57 -14 4 -29 0 -44 -12z"/>
</g>
</svg>
